<svg xmlns="http://www.w3.org/2000/svg" xmlns:xlink="http://www.w3.org/1999/xlink" width="3941" height="4092.809" viewBox="0 0 3941 4092.809">
  <defs>
    <linearGradient id="linear-gradient" x1="0.231" y1="0.086" x2="1.076" y2="0.95" gradientUnits="objectBoundingBox">
      <stop offset="0" stop-color="#fff"/>
      <stop offset="1" stop-color="#ce00ff"/>
    </linearGradient>
    <clipPath id="clip-path">
      <rect id="Rectangle_14315" data-name="Rectangle 14315" width="3941" height="3941" fill="url(#linear-gradient)"/>
    </clipPath>
    <linearGradient id="linear-gradient-26" x1="0.5" x2="0.816" y2="0.651" gradientUnits="objectBoundingBox">
      <stop offset="0" stop-color="#e6904a"/>
      <stop offset="1" stop-color="#a55412"/>
    </linearGradient>
    <clipPath id="clip-path-2">
      <rect id="Rectangle_14325" data-name="Rectangle 14325" width="150" height="150" fill="#fff"/>
    </clipPath>
    <linearGradient id="linear-gradient-27" x1="0.5" x2="0.5" y2="1" gradientUnits="objectBoundingBox">
      <stop offset="0" stop-color="#e66288"/>
      <stop offset="1" stop-color="#f2779c"/>
    </linearGradient>
    <clipPath id="clip-path-3">
      <rect id="Rectangle_14326" data-name="Rectangle 14326" width="150" height="150" transform="translate(4193.393 1748.821)" fill="#fff"/>
    </clipPath>
    <linearGradient id="linear-gradient-28" x1="0.5" x2="0.5" y2="1" gradientUnits="objectBoundingBox">
      <stop offset="0" stop-color="#ea1517"/>
      <stop offset="1" stop-color="#750b0c"/>
    </linearGradient>
    <linearGradient id="linear-gradient-29" x1="0.5" x2="0.5" y2="1" gradientUnits="objectBoundingBox">
      <stop offset="0" stop-color="#8662e6"/>
      <stop offset="1" stop-color="#ab77f2"/>
    </linearGradient>
    <clipPath id="clip-path-5">
      <rect id="Rectangle_14324" data-name="Rectangle 14324" width="150" height="150" transform="translate(4193.39 1748.821)" fill="#fff"/>
    </clipPath>
    <linearGradient id="linear-gradient-30" x1="0.5" x2="0.5" y2="1" gradientUnits="objectBoundingBox">
      <stop offset="0" stop-color="#fff"/>
      <stop offset="1" stop-color="#312e2f"/>
    </linearGradient>
    <linearGradient id="linear-gradient-31" x1="0.5" x2="0.5" y2="1" gradientUnits="objectBoundingBox">
      <stop offset="0" stop-color="#1d4be2"/>
      <stop offset="1" stop-color="#2f4488"/>
    </linearGradient>
    <clipPath id="clip-path-7">
      <rect id="Rectangle_14320" data-name="Rectangle 14320" width="150" height="150" transform="translate(4193.668 1748.821)" fill="#fff"/>
    </clipPath>
    <linearGradient id="linear-gradient-32" x1="0.5" x2="0.5" y2="1" gradientUnits="objectBoundingBox">
      <stop offset="0" stop-color="#67e662"/>
      <stop offset="1" stop-color="#77c3f2"/>
    </linearGradient>
    <linearGradient id="linear-gradient-33" x1="0.5" x2="0.5" y2="1" gradientUnits="objectBoundingBox">
      <stop offset="0" stop-color="#f09225"/>
      <stop offset="1" stop-color="#805f0b"/>
    </linearGradient>
    <linearGradient id="linear-gradient-34" x1="0.5" x2="0.5" y2="1" gradientUnits="objectBoundingBox">
      <stop offset="0" stop-color="#e6c262"/>
      <stop offset="1" stop-color="#454008"/>
    </linearGradient>
    <linearGradient id="linear-gradient-35" x1="0.5" x2="0.5" y2="1" gradientUnits="objectBoundingBox">
      <stop offset="0" stop-color="#6aa3e6"/>
      <stop offset="1" stop-color="#1558b4"/>
    </linearGradient>
    <linearGradient id="linear-gradient-36" x1="0.5" x2="0.757" y2="0.778" gradientUnits="objectBoundingBox">
      <stop offset="0" stop-color="#e0cab2"/>
      <stop offset="1" stop-color="#5f2c0a"/>
    </linearGradient>
    <linearGradient id="linear-gradient-37" x1="0.5" x2="0.5" y2="1" gradientUnits="objectBoundingBox">
      <stop offset="0" stop-color="#0e84ba"/>
      <stop offset="1" stop-color="#08a0e9"/>
    </linearGradient>
    <linearGradient id="linear-gradient-38" x1="0.5" x2="0.5" y2="1" gradientUnits="objectBoundingBox">
      <stop offset="0" stop-color="#fff"/>
      <stop offset="1" stop-color="#47184f"/>
    </linearGradient>
  </defs>
  <g id="Group_61724" data-name="Group 61724" transform="translate(-782 -551.191)">
    <g id="Group_61709" data-name="Group 61709" transform="translate(782 703.004)" opacity="0.263" style="isolation: isolate">
      <g id="Group_61708" data-name="Group 61708" transform="translate(0 -0.004)" clip-path="url(#clip-path)">
        <path id="Path_68627" data-name="Path 68627" d="M1970.5,3941c-266.014,0-524.074-52.1-767.009-154.852A1976.257,1976.257,0,0,1,154.852,2737.5C52.1,2494.568,0,2236.51,0,1970.5s52.1-524.074,154.852-767.009A1976.265,1976.265,0,0,1,1203.491,154.848C1446.426,52.1,1704.486,0,1970.5,0s524.074,52.1,767.007,154.852a1976.257,1976.257,0,0,1,1048.64,1048.639C3888.9,1446.422,3941,1704.482,3941,1970.5s-52.1,524.072-154.853,767.007a1976.254,1976.254,0,0,1-1048.64,1048.64C2494.574,3888.9,2236.514,3941,1970.5,3941m0-3937.685c-265.568,0-523.192,52.011-765.716,154.591A1972.932,1972.932,0,0,0,157.906,1204.778C55.326,1447.3,3.315,1704.928,3.315,1970.5s52.011,523.192,154.591,765.716A1972.943,1972.943,0,0,0,1204.784,3783.091c242.524,102.579,500.148,154.59,765.716,154.59s523.192-52.011,765.716-154.59A1972.937,1972.937,0,0,0,3783.094,2736.212c102.579-242.524,154.591-500.148,154.591-765.716s-52.012-523.194-154.591-765.718A1972.942,1972.942,0,0,0,2736.216,157.9C2493.692,55.322,2236.068,3.311,1970.5,3.311" transform="translate(0 0.004)" fill="url(#linear-gradient)"/>
        <path id="Path_68627_-_Outline" data-name="Path 68627 - Outline" d="M1970.5,3944c-266.417,0-524.869-52.18-768.177-155.089A1979.255,1979.255,0,0,1,152.089,2738.672C49.18,2495.366-3,2236.915-3,1970.5s52.18-524.872,155.089-768.177A1979.26,1979.26,0,0,1,1202.323,152.085C1445.628,49.175,1704.08-3,1970.5-3s524.872,52.18,768.176,155.089A1979.247,1979.247,0,0,1,3788.91,1202.318C3891.821,1445.627,3944,1704.08,3944,1970.5s-52.179,524.867-155.09,768.176A1979.253,1979.253,0,0,1,2738.676,3788.907C2495.369,3891.816,2236.917,3944,1970.5,3944Zm0-3937.685c-265.165,0-522.4,51.932-764.547,154.354A1969.938,1969.938,0,0,0,160.669,1205.947C58.247,1448.1,6.315,1705.329,6.315,1970.5s51.932,522.4,154.354,764.547A1969.944,1969.944,0,0,0,1205.953,3780.327c242.152,102.422,499.382,154.354,764.547,154.354s522.4-51.932,764.548-154.354A1969.943,1969.943,0,0,0,3780.332,2735.043c102.421-242.151,154.354-499.382,154.354-764.547s-51.932-522.4-154.354-764.549A1969.949,1969.949,0,0,0,2735.048,160.664C2492.9,58.243,2235.665,6.311,1970.5,6.311Z" transform="translate(0 0.004)" fill="url(#linear-gradient)"/>
        <path id="Path_68628" data-name="Path 68628" d="M1914.129,3742.523c-246.832,0-486.281-48.344-711.7-143.686A1833.746,1833.746,0,0,1,229.416,2625.82c-95.342-225.415-143.684-464.864-143.684-711.7s48.342-486.281,143.684-711.7a1833.728,1833.728,0,0,1,973.018-973.016c225.415-95.342,464.864-143.686,711.7-143.686s486.281,48.343,711.7,143.686a1833.743,1833.743,0,0,1,973.018,973.016c95.341,225.415,143.684,464.864,143.684,711.7s-48.344,486.281-143.684,711.7a1833.723,1833.723,0,0,1-973.018,973.018c-225.415,95.342-464.864,143.686-711.7,143.686m0-3653.481c-246.384,0-485.4,48.255-710.4,143.424a1830.419,1830.419,0,0,0-971.256,971.256c-95.168,225-143.422,464.019-143.422,710.4s48.254,485.4,143.422,710.4a1830.434,1830.434,0,0,0,971.256,971.255c225,95.168,464.02,143.424,710.4,143.424s485.4-48.256,710.4-143.424a1830.421,1830.421,0,0,0,971.256-971.255c95.168-225,143.422-464.019,143.422-710.4s-48.254-485.4-143.422-710.4a1830.411,1830.411,0,0,0-971.256-971.256c-225-95.168-464.02-143.424-710.4-143.424" transform="translate(56.371 56.374)" fill="url(#linear-gradient)"/>
        <path id="Path_68628_-_Outline" data-name="Path 68628 - Outline" d="M1914.129,3745.523c-247.234,0-487.076-48.423-712.864-143.923a1836.75,1836.75,0,0,1-974.612-974.612c-95.5-225.785-143.921-465.627-143.921-712.864s48.422-487.079,143.921-712.864a1836.727,1836.727,0,0,1,974.612-974.61c225.788-95.5,465.63-143.923,712.864-143.923S2401.2,131.15,2626.993,226.65a1836.742,1836.742,0,0,1,974.612,974.61c95.5,225.789,143.921,465.631,143.921,712.864S3697.1,2401.2,3601.606,2626.988A1836.723,1836.723,0,0,1,2626.993,3601.6C2401.2,3697.1,2161.363,3745.523,1914.129,3745.523Zm0-3653.481c-245.981,0-484.6,48.175-709.236,143.187A1827.42,1827.42,0,0,0,235.232,1204.89c-95.011,224.631-143.185,463.252-143.185,709.234s48.175,484.6,143.185,709.236a1827.439,1827.439,0,0,0,969.661,969.661c224.634,95.012,463.255,143.187,709.236,143.187s484.6-48.175,709.236-143.187a1827.418,1827.418,0,0,0,969.661-969.661c95.011-224.631,143.185-463.253,143.185-709.236s-48.174-484.6-143.185-709.234a1827.407,1827.407,0,0,0-969.661-969.661C2398.731,140.217,2160.11,92.042,1914.129,92.042Z" transform="translate(56.371 56.374)" fill="url(#linear-gradient)"/>
        <path id="Path_68629" data-name="Path 68629" d="M1857.759,3544.052c-227.648,0-448.488-44.586-656.382-132.519-200.8-84.931-381.144-206.521-536.01-361.386S388.914,2714.94,303.98,2514.138c-87.932-207.9-132.517-428.735-132.517-656.384s44.586-448.486,132.517-656.382c84.933-200.8,206.521-381.143,361.386-536.008s335.206-276.455,536.01-361.386c207.883-87.928,428.747-132.519,656.379-132.519h0c227.647,0,448.488,44.586,656.382,132.519,200.8,84.932,381.144,206.519,536.01,361.386s276.453,335.2,361.386,536.008c87.932,207.9,132.517,428.735,132.517,656.382s-44.585,448.488-132.517,656.384c-84.933,200.8-206.521,381.143-361.386,536.008s-335.206,276.455-536.01,361.386c-207.895,87.933-428.735,132.519-656.382,132.519m0-3369.279c-227.2,0-447.606,44.5-655.093,132.257C1002.26,391.794,822.275,513.145,667.712,667.707S391.8,1002.255,307.033,1202.663c-87.759,207.485-132.255,427.89-132.255,655.091s44.5,447.608,132.255,655.093C391.8,2713.255,513.148,2893.24,667.712,3047.8s334.548,275.913,534.954,360.677c207.487,87.759,427.891,132.257,655.093,132.257s447.606-44.5,655.093-132.257c200.406-84.764,380.392-206.115,534.954-360.677s275.913-334.548,360.678-534.956c87.759-207.485,132.256-427.89,132.256-655.093s-44.5-447.606-132.256-655.091c-84.765-200.408-206.115-380.393-360.678-534.956S2713.258,391.794,2512.852,307.03c-207.487-87.759-427.891-132.257-655.093-132.257" transform="translate(112.741 112.744)" fill="url(#linear-gradient)"/>
        <path id="Path_68629_-_Outline" data-name="Path 68629 - Outline" d="M1857.759,3547.052c-228.053,0-449.285-44.665-657.551-132.756-201.159-85.081-381.82-206.885-536.963-362.028s-276.943-335.8-362.028-536.961c-88.09-208.269-132.755-429.5-132.755-657.553s44.665-449.282,132.755-657.551C386.3,999.042,508.106,818.382,663.246,663.242s335.8-276.944,536.963-362.028c208.267-88.091,429.5-132.756,657.547-132.756s449.288,44.665,657.554,132.756C2716.474,386.3,2897.134,508.1,3052.273,663.242s276.944,335.8,362.028,536.961c88.09,208.27,132.755,429.5,132.755,657.551s-44.665,449.284-132.755,657.553c-85.085,201.162-206.889,381.822-362.028,536.961s-335.8,276.946-536.963,362.028C2307.044,3502.387,2085.812,3547.052,1857.759,3547.052Zm0-3369.279c-226.8,0-446.808,44.418-653.924,132.02-200.048,84.613-379.712,205.746-534,360.035s-275.421,333.95-360.037,534c-87.6,207.111-132.018,427.123-132.018,653.922S222.2,2304.567,309.8,2511.678c84.616,200.053,205.75,379.718,360.037,534s333.954,275.423,534,360.035c207.115,87.6,427.127,132.02,653.924,132.02s446.809-44.418,653.924-132.02c200.049-84.612,379.712-205.746,534-360.035s275.422-333.952,360.037-534c87.6-207.111,132.019-427.123,132.019-653.924s-44.417-446.811-132.019-653.922c-84.615-200.052-205.749-379.717-360.037-534s-333.953-275.422-534-360.035C2304.567,222.191,2084.556,177.773,1857.759,177.773Z" transform="translate(112.741 112.744)" fill="url(#linear-gradient)"/>
        <path id="Path_68630" data-name="Path 68630" d="M1801.389,3345.58c-208.465,0-410.694-40.828-601.071-121.352-183.882-77.774-349.025-189.117-490.839-330.933s-253.159-306.957-330.935-490.839c-80.522-190.376-121.351-392.607-121.351-601.071s40.828-410.694,121.351-601.071c77.776-183.882,189.118-349.025,330.935-490.839s306.957-253.158,490.839-330.934c190.376-80.523,392.606-121.351,601.071-121.351s410.694,40.828,601.071,121.351c183.882,77.776,349.025,189.118,490.839,330.934s253.158,306.957,330.935,490.839c80.522,190.377,121.35,392.606,121.35,601.071s-40.828,410.694-121.35,601.071c-77.776,183.882-189.118,349.025-330.935,490.839s-306.957,253.158-490.839,330.933c-190.376,80.524-392.606,121.352-601.071,121.352m0-3085.075c-208.019,0-409.813,40.74-599.78,121.089C1018.123,459.2,853.335,570.306,711.823,711.819s-252.616,306.3-330.225,489.786c-80.348,189.967-121.089,391.761-121.089,599.78s40.74,409.813,121.089,599.78c77.609,183.486,188.712,348.274,330.225,489.786s306.3,252.616,489.786,330.225c189.967,80.348,391.761,121.089,599.78,121.089s409.813-40.74,599.78-121.089c183.486-77.609,348.274-188.712,489.786-330.225s252.616-306.3,330.225-489.786c80.349-189.967,121.089-391.762,121.089-599.78s-40.74-409.813-121.089-599.78c-77.609-183.486-188.712-348.274-330.225-489.786s-306.3-252.616-489.786-330.225c-189.967-80.348-391.76-121.089-599.78-121.089" transform="translate(169.111 169.115)" fill="url(#linear-gradient)"/>
        <path id="Path_68630_-_Outline" data-name="Path 68630 - Outline" d="M1801.389,3348.58c-208.87,0-411.493-40.908-602.24-121.589-184.238-77.925-349.7-189.483-491.792-331.574s-253.649-307.552-331.576-491.792c-80.679-190.747-121.587-393.37-121.587-602.24s40.908-411.493,121.587-602.24c77.927-184.239,189.485-349.7,331.576-491.791s307.551-253.649,491.792-331.577C1389.9,295.1,1592.52,254.19,1801.389,254.19s411.491,40.908,602.24,121.587c184.241,77.928,349.7,189.487,491.792,331.577S3149.069,1014.905,3227,1199.145c80.679,190.748,121.587,393.371,121.587,602.24s-40.908,411.491-121.587,602.24c-77.928,184.24-189.486,349.7-331.576,491.792s-307.552,253.649-491.792,331.574C2212.882,3307.672,2010.26,3348.58,1801.389,3348.58Zm0-3085.075c-207.613,0-409.015,40.66-598.611,120.852C1019.65,461.814,855.183,572.7,713.944,713.94s-252.127,305.707-329.583,488.834c-80.192,189.6-120.852,391-120.852,598.611S304.169,2210.4,384.361,2400c77.457,183.127,188.345,347.595,329.583,488.833s305.706,252.126,488.834,329.583c189.6,80.192,391,120.852,598.611,120.852S2210.4,3298.6,2400,3218.413c183.127-77.457,347.595-188.345,488.833-329.583S3140.96,2583.124,3218.417,2400c80.192-189.595,120.852-391,120.852-598.611s-40.66-409.016-120.852-598.611c-77.457-183.127-188.344-347.595-329.583-488.834S2583.128,461.814,2400,384.357C2210.4,304.165,2009,263.505,1801.389,263.505Z" transform="translate(169.111 169.115)" fill="url(#linear-gradient)"/>
        <path id="Path_68631" data-name="Path 68631" d="M1745.018,3147.107c-189.281,0-372.9-37.07-545.758-110.184C1032.3,2966.3,882.354,2865.209,753.589,2736.444S523.727,2457.733,453.11,2290.772C380,2117.915,342.926,1934.294,342.926,1745.013s37.07-372.9,110.184-545.758c70.617-166.961,171.713-316.905,300.479-445.672S1032.3,523.724,1199.26,453.1c172.857-73.113,356.477-110.184,545.758-110.184s372.9,37.071,545.758,110.184c166.961,70.619,316.907,171.714,445.672,300.479s229.862,278.711,300.479,445.672c73.113,172.858,110.184,356.479,110.184,545.758s-37.071,372.9-110.184,545.759c-70.617,166.961-171.713,316.905-300.479,445.672s-278.711,229.86-445.672,300.479c-172.856,73.113-356.477,110.184-545.758,110.184m0-2800.871c-188.835,0-372.019,36.983-544.466,109.922-166.566,70.451-316.158,171.308-444.619,299.77s-229.318,278.054-299.771,444.619c-72.938,172.447-109.92,355.633-109.92,544.466s36.983,372.021,109.92,544.468c70.453,166.564,171.31,316.156,299.771,444.619s278.053,229.318,444.619,299.77c172.447,72.938,355.631,109.922,544.466,109.922s372.02-36.984,544.467-109.922c166.566-70.451,316.158-171.308,444.619-299.77s229.318-278.054,299.771-444.619c72.938-172.447,109.92-355.633,109.92-544.468s-36.983-372.019-109.92-544.466c-70.453-166.565-171.31-316.156-299.771-444.619s-278.053-229.318-444.619-299.77c-172.447-72.939-355.632-109.922-544.467-109.922" transform="translate(225.482 225.485)" fill="url(#linear-gradient)"/>
        <path id="Path_68631_-_Outline" data-name="Path 68631 - Outline" d="M1745.018,3150.107c-189.687,0-373.7-37.151-546.926-110.421-167.32-70.771-317.586-172.082-446.624-301.121s-230.353-279.308-301.121-446.625c-73.27-173.228-110.421-357.241-110.421-546.928s37.151-373.7,110.421-546.926C521.114,1030.77,622.426,880.5,751.468,751.462s279.3-230.35,446.624-301.12c173.227-73.27,357.24-110.421,546.926-110.421s373.7,37.151,546.927,110.421c167.319,70.77,317.585,172.081,446.625,301.12s230.353,279.308,301.12,446.624c73.27,173.229,110.421,357.241,110.421,546.926s-37.151,373.7-110.421,546.928c-70.768,167.317-172.079,317.583-301.12,446.625s-279.305,230.35-446.625,301.121C2118.718,3112.956,1934.706,3150.107,1745.018,3150.107Zm0-2800.871c-188.432,0-371.224,36.9-543.3,109.685-166.209,70.3-315.48,170.941-443.666,299.128s-228.828,277.458-299.13,443.666c-72.78,172.075-109.683,354.867-109.683,543.3s36.9,371.224,109.683,543.3c70.3,166.208,170.944,315.479,299.13,443.666s277.457,228.828,443.666,299.128c172.079,72.781,354.87,109.685,543.3,109.685s371.219-36.9,543.3-109.685c166.208-70.3,315.48-170.941,443.666-299.128s228.828-277.458,299.13-443.666c72.78-172.075,109.683-354.868,109.683-543.3s-36.9-371.223-109.683-543.3c-70.3-166.208-170.944-315.479-299.13-443.666s-277.458-228.828-443.666-299.128C2116.242,386.14,1933.45,349.236,1745.018,349.236Z" transform="translate(225.482 225.485)" fill="url(#linear-gradient)"/>
        <path id="Path_68632" data-name="Path 68632" d="M1688.648,2948.635c-170.1,0-335.106-33.315-490.446-99.017A1264.432,1264.432,0,0,1,527.674,2179.09c-65.7-155.339-99.017-320.349-99.017-490.446s33.315-335.106,99.017-490.446A1264.433,1264.433,0,0,1,1198.2,527.67c155.34-65.7,320.35-99.017,490.446-99.017s335.106,33.315,490.446,99.017A1264.434,1264.434,0,0,1,2849.622,1198.2c65.7,155.34,99.017,320.349,99.017,490.446s-33.315,335.106-99.017,490.446a1264.433,1264.433,0,0,1-670.528,670.528c-155.34,65.7-320.35,99.017-490.446,99.017m0-2516.667c-169.651,0-334.226,33.225-489.155,98.755a1261.128,1261.128,0,0,0-668.766,668.766c-65.53,154.929-98.755,319.5-98.755,489.155S465.2,2022.87,530.727,2177.8a1261.112,1261.112,0,0,0,668.766,668.766c154.929,65.53,319.5,98.755,489.155,98.755s334.226-33.225,489.155-98.755A1261.112,1261.112,0,0,0,2846.569,2177.8c65.53-154.929,98.755-319.5,98.755-489.155s-33.225-334.226-98.755-489.155A1261.128,1261.128,0,0,0,2177.8,530.723c-154.929-65.53-319.5-98.755-489.155-98.755" transform="translate(281.852 281.856)" fill="url(#linear-gradient)"/>
        <path id="Path_68632_-_Outline" data-name="Path 68632 - Outline" d="M1688.648,2951.635c-170.5,0-335.9-33.394-491.615-99.254a1267.436,1267.436,0,0,1-672.122-672.122c-65.86-155.712-99.254-321.115-99.254-491.615s33.394-335.9,99.254-491.615a1267.438,1267.438,0,0,1,672.122-672.122c155.712-65.86,321.115-99.254,491.615-99.254s335.9,33.394,491.615,99.254a1267.44,1267.44,0,0,1,672.122,672.122c65.86,155.713,99.254,321.116,99.254,491.615s-33.394,335.9-99.254,491.615a1267.438,1267.438,0,0,1-672.122,672.122C2024.55,2918.241,1859.147,2951.635,1688.648,2951.635Zm0-2516.668c-169.249,0-333.432,33.146-487.986,98.518A1258.127,1258.127,0,0,0,533.49,1200.658c-65.372,154.555-98.518,318.737-98.518,487.986s33.146,333.431,98.518,487.986A1258.11,1258.11,0,0,0,1200.662,2843.8c154.554,65.372,318.736,98.518,487.986,98.518s333.432-33.146,487.986-98.518a1258.109,1258.109,0,0,0,667.172-667.171c65.372-154.555,98.518-318.737,98.518-487.986s-33.146-333.432-98.518-487.986a1258.125,1258.125,0,0,0-667.172-667.172C2022.079,468.114,1857.9,434.968,1688.648,434.968Z" transform="translate(281.852 281.856)" fill="url(#linear-gradient)"/>
        <path id="Path_68633" data-name="Path 68633" d="M1632.278,2750.164c-150.912,0-297.313-29.557-435.135-87.852a1121.82,1121.82,0,0,1-594.9-594.9c-58.293-137.822-87.85-284.222-87.85-435.135s29.557-297.313,87.85-435.133a1121.825,1121.825,0,0,1,594.9-594.907c137.821-58.293,284.222-87.85,435.135-87.85s297.313,29.557,435.135,87.85a1121.827,1121.827,0,0,1,594.9,594.907c58.293,137.82,87.85,284.22,87.85,435.133s-29.557,297.313-87.85,435.135a1121.822,1121.822,0,0,1-594.9,594.9c-137.822,58.295-284.222,87.852-435.135,87.852m0-2232.465c-150.467,0-296.433,29.469-433.842,87.589a1118.5,1118.5,0,0,0-593.145,593.145c-58.12,137.409-87.589,283.375-87.589,433.842s29.469,296.433,87.589,433.842a1118.5,1118.5,0,0,0,593.145,593.145c137.409,58.119,283.375,87.588,433.842,87.588s296.433-29.469,433.842-87.588a1118.5,1118.5,0,0,0,593.145-593.145c58.12-137.409,87.589-283.377,87.589-433.842s-29.469-296.433-87.589-433.842A1118.5,1118.5,0,0,0,2066.12,605.288c-137.409-58.119-283.375-87.589-433.842-87.589" transform="translate(338.222 338.226)" fill="url(#linear-gradient)"/>
        <path id="Path_68633_-_Outline" data-name="Path 68633 - Outline" d="M1632.278,2753.164c-151.318,0-298.112-29.637-436.3-88.089a1124.819,1124.819,0,0,1-596.5-596.5c-58.45-138.193-88.087-284.987-88.087-436.3s29.637-298.111,88.087-436.3a1124.823,1124.823,0,0,1,596.5-596.5c138.193-58.451,284.986-88.088,436.3-88.088s298.111,29.637,436.3,88.088a1124.825,1124.825,0,0,1,596.5,596.5c58.45,138.191,88.087,284.984,88.087,436.3s-29.637,298.11-88.087,436.3a1124.821,1124.821,0,0,1-596.5,596.5C1930.39,2723.527,1783.6,2753.164,1632.278,2753.164Zm0-2232.465c-150.064,0-295.636,29.389-432.673,87.351A1115.5,1115.5,0,0,0,608.055,1199.6C550.093,1336.638,520.7,1482.21,520.7,1632.274s29.389,295.636,87.352,432.673A1115.5,1115.5,0,0,0,1199.6,2656.5c137.037,57.962,282.609,87.351,432.673,87.351s295.636-29.389,432.673-87.351a1115.5,1115.5,0,0,0,591.55-591.551c57.962-137.036,87.352-282.609,87.352-432.673s-29.389-295.637-87.352-432.673a1115.5,1115.5,0,0,0-591.55-591.551C1927.914,550.088,1782.341,520.7,1632.278,520.7Z" transform="translate(338.222 338.226)" fill="url(#linear-gradient)"/>
        <path id="Path_68634" data-name="Path 68634" d="M1575.908,2551.691c-131.73,0-259.52-25.8-379.821-76.682A979.248,979.248,0,0,1,676.8,1955.725c-50.883-120.3-76.684-248.093-76.684-379.822s25.8-259.522,76.684-379.821A979.233,979.233,0,0,1,1196.086,676.8c120.3-50.884,248.091-76.684,379.821-76.684s259.52,25.8,379.822,76.684a979.232,979.232,0,0,1,519.284,519.284c50.883,120.3,76.684,248.091,76.684,379.821s-25.8,259.52-76.684,379.822a979.247,979.247,0,0,1-519.284,519.283c-120.3,50.883-248.092,76.682-379.822,76.682m0-1948.261c-131.284,0-258.64,25.712-378.53,76.42a975.925,975.925,0,0,0-517.522,517.524c-50.708,119.89-76.422,247.246-76.422,378.53s25.713,258.64,76.422,378.529a975.927,975.927,0,0,0,517.522,517.524c119.89,50.708,247.246,76.42,378.53,76.42s258.64-25.711,378.53-76.42a975.927,975.927,0,0,0,517.522-517.524c50.708-119.889,76.422-247.246,76.422-378.529s-25.713-258.64-76.422-378.53A975.925,975.925,0,0,0,1954.438,679.85c-119.89-50.708-247.246-76.42-378.53-76.42" transform="translate(394.592 394.596)" fill="url(#linear-gradient)"/>
        <path id="Path_68634_-_Outline" data-name="Path 68634 - Outline" d="M1575.908,2554.691c-132.135,0-260.318-25.879-380.99-76.919A982.248,982.248,0,0,1,674.04,1956.894C623,1836.219,597.119,1708.035,597.119,1575.9s25.88-260.317,76.921-380.99a982.234,982.234,0,0,1,520.878-520.878c120.672-51.041,248.855-76.921,380.99-76.921s260.318,25.88,380.99,76.921a982.232,982.232,0,0,1,520.878,520.878c51.041,120.674,76.921,248.858,76.921,380.99s-25.88,260.315-76.921,380.99A982.246,982.246,0,0,1,1956.9,2477.772C1836.226,2528.812,1708.042,2554.691,1575.908,2554.691Zm0-1948.261c-130.88,0-257.843,25.632-377.362,76.183a972.923,972.923,0,0,0-515.928,515.929c-50.552,119.521-76.185,246.484-76.185,377.361s25.632,257.841,76.185,377.36a972.925,972.925,0,0,0,515.928,515.929c119.518,50.551,246.481,76.183,377.362,76.183s257.843-25.632,377.361-76.183A972.923,972.923,0,0,0,2469.2,1953.264c50.553-119.52,76.185-246.482,76.185-377.36s-25.632-257.84-76.185-377.361a972.921,972.921,0,0,0-515.928-515.929C1833.751,632.062,1706.788,606.43,1575.908,606.43Z" transform="translate(394.592 394.596)" fill="url(#linear-gradient)"/>
        <path id="Path_68635" data-name="Path 68635" d="M1519.537,2353.218a831.076,831.076,0,1,1,324.508-65.515,828.454,828.454,0,0,1-324.508,65.515m0-1664.057a827.781,827.781,0,1,0,323.217,65.255,825.164,825.164,0,0,0-323.217-65.255" transform="translate(450.963 450.966)" fill="url(#linear-gradient)"/>
        <path id="Path_68635_-_Outline" data-name="Path 68635 - Outline" d="M1519.537,2356.218a834.074,834.074,0,1,1,325.677-65.752A831.435,831.435,0,0,1,1519.537,2356.218Zm0-1664.057a824.782,824.782,0,1,0,322.048,65.018A822.177,822.177,0,0,0,1519.537,692.161Z" transform="translate(450.963 450.966)" fill="url(#linear-gradient)"/>
        <path id="Path_68636" data-name="Path 68636" d="M1463.167,2154.747a689.419,689.419,0,1,1,269.2-54.349,687.26,687.26,0,0,1-269.2,54.349m0-1379.855a686.106,686.106,0,1,0,267.906,54.087,683.97,683.97,0,0,0-267.906-54.087" transform="translate(507.333 507.337)" fill="url(#linear-gradient)"/>
        <path id="Path_68636_-_Outline" data-name="Path 68636 - Outline" d="M1463.167,2157.747a692.417,692.417,0,1,1,270.365-54.585A690.248,690.248,0,0,1,1463.167,2157.747Zm0-1379.855a683.109,683.109,0,1,0,266.737,53.85A680.983,680.983,0,0,0,1463.167,777.892Z" transform="translate(507.333 507.337)" fill="url(#linear-gradient)"/>
        <path id="Path_68637" data-name="Path 68637" d="M1406.8,1956.277c-146.772,0-284.759-57.156-388.543-160.941s-160.941-241.771-160.941-388.543,57.156-284.761,160.941-388.543S1260.025,857.309,1406.8,857.309s284.759,57.156,388.543,160.941,160.941,241.769,160.941,388.543-57.156,284.759-160.941,388.543-241.771,160.941-388.543,160.941m0-1095.653c-145.887,0-283.042,56.812-386.2,159.969s-159.969,240.313-159.969,386.2,56.812,283.042,159.969,386.2,240.313,159.971,386.2,159.971,283.042-56.812,386.2-159.971,159.969-240.312,159.969-386.2-56.812-283.042-159.969-386.2-240.312-159.969-386.2-159.969" transform="translate(563.703 563.707)" fill="url(#linear-gradient)"/>
        <path id="Path_68637_-_Outline" data-name="Path 68637 - Outline" d="M1406.8,1959.277c-147.573,0-286.314-57.469-390.665-161.819s-161.819-243.092-161.819-390.665,57.469-286.316,161.819-390.665S1259.224,854.309,1406.8,854.309s286.314,57.469,390.665,161.819,161.819,243.09,161.819,390.665-57.469,286.314-161.819,390.665S1554.37,1959.277,1406.8,1959.277Zm0-1095.653c-145.086,0-281.487,56.5-384.078,159.091s-159.091,238.993-159.091,384.078,56.5,281.487,159.091,384.076,238.992,159.092,384.078,159.092,281.488-56.5,384.078-159.092,159.091-238.991,159.091-384.076-56.5-281.487-159.091-384.078S1551.883,863.624,1406.8,863.624Z" transform="translate(563.703 563.707)" fill="url(#linear-gradient)"/>
        <path id="Path_68638" data-name="Path 68638" d="M1350.426,1757.8c-108.815,0-211.119-42.376-288.062-119.32s-119.319-179.246-119.319-288.063,42.375-211.117,119.319-288.063S1241.611,943.04,1350.426,943.04s211.119,42.375,288.063,119.318,119.318,179.248,119.318,288.063-42.375,211.119-119.318,288.063-179.248,119.32-288.063,119.32m0-811.449c-107.929,0-209.4,42.03-285.717,118.349S946.36,1242.491,946.36,1350.421s42.03,209.4,118.349,285.719,177.788,118.349,285.717,118.349,209.4-42.031,285.717-118.349,118.349-177.788,118.349-285.719-42.03-209.4-118.349-285.717-177.788-118.349-285.717-118.349" transform="translate(620.074 620.077)" fill="url(#linear-gradient)"/>
        <path id="Path_68638_-_Outline" data-name="Path 68638 - Outline" d="M1350.426,1760.8c-109.617,0-212.673-42.687-290.184-120.2s-120.2-180.567-120.2-290.184,42.687-212.672,120.2-290.184,180.566-120.2,290.184-120.2,212.673,42.687,290.184,120.2,120.2,180.568,120.2,290.184-42.687,212.673-120.2,290.184S1460.043,1760.8,1350.426,1760.8Zm0-811.449A401.068,401.068,0,0,0,949.36,1350.421c0,107.131,41.718,207.848,117.47,283.6a401.063,401.063,0,0,0,567.192,0c75.752-75.75,117.47-176.467,117.47-283.6a401.068,401.068,0,0,0-401.066-401.066Z" transform="translate(620.074 620.077)" fill="url(#linear-gradient)"/>
      </g>
    </g>
    <g id="Group_61711" data-name="Group 61711" transform="translate(-213.311 -285.35)">
      <rect id="Rectangle_3906" data-name="Rectangle 3906" width="246.244" height="246.247" rx="123" transform="matrix(1, 0.017, -0.017, 1, 4043.414, 1659.013)" fill="url(#linear-gradient-26)"/>
      <rect id="Rectangle_3905" data-name="Rectangle 3905" width="285.303" height="272.19" rx="136" transform="matrix(1, 0.017, -0.017, 1, 4128.408, 1685.502)" fill="#fff"/>
      <g id="Mask_Group_5775" data-name="Mask Group 5775" transform="translate(4193.311 1749.35)" clip-path="url(#clip-path-2)">
        <g id="__TEMP__SVG__" transform="translate(9)">
          <path id="Path_68652" data-name="Path 68652" d="M26.063,43.969l-1.5-16.406h82.875l-4.406,50.063H45.656L47.719,99l18.469,4.969L84.563,99l1.219-13.125h16.406l-2.062,26.063-33.937,9.375h-.375v-.094l-33.656-9.281-4.687-51H87.844L89.25,43.969ZM132,0H0L12,134.813,66.188,150,120,134.813Z" fill="#fff"/>
        </g>
      </g>
    </g>
    <g id="Group_61712" data-name="Group 61712" transform="translate(-1061.393 -1107.821)">
      <rect id="Rectangle_3906-2" data-name="Rectangle 3906" width="246.244" height="246.247" rx="123" transform="matrix(1, 0.017, -0.017, 1, 4043.414, 1659.013)" fill="url(#linear-gradient-27)"/>
      <rect id="Rectangle_3905-2" data-name="Rectangle 3905" width="285.303" height="272.19" rx="136" transform="matrix(1, 0.017, -0.017, 1, 4128.408, 1685.502)" fill="#fff"/>
      <g id="Mask_Group_5769" data-name="Mask Group 5769" clip-path="url(#clip-path-3)">
        <g id="__TEMP__SVG__2" data-name="__TEMP__SVG__" transform="translate(4193.393 1748.824)">
          <path id="Path_68646" data-name="Path 68646" d="M126.431,98.706a4.162,4.162,0,0,0,2.088-3.6l.075-24.112a4.151,4.151,0,0,1,2.094-3.6l13.063-7.519a4.166,4.166,0,0,1,6.244,3.612v43.838a4.169,4.169,0,0,1-2.094,3.612L98.569,139.275a4.163,4.163,0,0,1-4.138,0L55.719,117.138a4.159,4.159,0,0,1-2.1-3.619V91.413c0-.025.025-.037.05-.025a.032.032,0,0,0,.05-.031v-.025a.063.063,0,0,1,.025-.044L85.631,72.975a.035.035,0,0,0-.019-.062.032.032,0,0,1-.031-.037l.063-21.669a4.166,4.166,0,0,0-6.25-3.625L55.7,61.244a4.169,4.169,0,0,1-4.156,0L27.769,47.556a4.169,4.169,0,0,0-6.244,3.606V90.331a4.163,4.163,0,0,1-6.231,3.619L2.1,86.406A4.159,4.159,0,0,1,0,82.781L.119,14.325a4.169,4.169,0,0,1,6.238-3.606L51.544,36.675a4.169,4.169,0,0,0,4.156,0l45.175-25.956a4.16,4.16,0,0,1,6.238,3.619V82.813a4.148,4.148,0,0,1-2.088,3.613L81.369,100.05a4.162,4.162,0,0,0,.019,7.231l13.05,7.431a4.166,4.166,0,0,0,4.137-.013l27.856-16Zm2.737-61.425a4.163,4.163,0,0,0,6.3,3.569l12.506-7.5A4.176,4.176,0,0,0,150,29.775V14.5a4.171,4.171,0,0,0-6.306-3.569l-12.5,7.5a4.139,4.139,0,0,0-2.025,3.575V37.287Z" fill="#fff"/>
        </g>
      </g>
    </g>
    <g id="Group_61713" data-name="Group 61713" transform="translate(-1124.393 35.179)">
      <rect id="Rectangle_3906-3" data-name="Rectangle 3906" width="246.244" height="246.247" rx="123" transform="matrix(1, 0.017, -0.017, 1, 4043.414, 1659.013)" fill="url(#linear-gradient-28)"/>
      <rect id="Rectangle_3905-3" data-name="Rectangle 3905" width="285.303" height="272.19" rx="136" transform="matrix(1, 0.017, -0.017, 1, 4128.408, 1685.502)" fill="#fff"/>
      <g id="Mask_Group_5771" data-name="Mask Group 5771" clip-path="url(#clip-path-3)">
        <g id="__TEMP__SVG__3" data-name="__TEMP__SVG__" transform="translate(4182.508 1738.026)">
          <path id="Path_68648" data-name="Path 68648" d="M119.955,52.55a8.106,8.106,0,0,0,0-11.488L108.249,29.357l.017.017q-4.647-4.647-15.959-15.943a9.144,9.144,0,0,0-12.811.084l-65.948,65.9a9.016,9.016,0,0,0,0,12.794l65.931,65.881a9.067,9.067,0,0,0,12.811,0l27.648-27.632a8.129,8.129,0,1,0-11.5-11.488L87.5,139.934a2.164,2.164,0,0,1-3.1,0L31.735,87.316a2.164,2.164,0,0,1,0-3.1L84.385,31.6c.067-.067.151-.117.218-.184a2.141,2.141,0,0,1,2.88.184L108.45,52.55a8.126,8.126,0,0,0,11.5,0ZM68.426,86.144a17.8,17.8,0,1,0,17.8-17.785,17.793,17.793,0,0,0-17.8,17.785Zm89.795-6.464L137.639,59.2a8.135,8.135,0,1,0-11.5,11.5l13.9,13.883a2.164,2.164,0,0,1,0,3.1l-13.7,13.682a8.129,8.129,0,1,0,11.5,11.488l20.4-20.38a9.031,9.031,0,0,0-.017-12.794Z" fill="#fff"/>
        </g>
      </g>
    </g>
    <g id="Group_61714" data-name="Group 61714" transform="translate(-2194.391 -295.821)">
      <rect id="Rectangle_3906-4" data-name="Rectangle 3906" width="246.244" height="246.247" rx="123" transform="matrix(1, 0.017, -0.017, 1, 4043.414, 1659.013)" fill="url(#linear-gradient-29)"/>
      <rect id="Rectangle_3905-4" data-name="Rectangle 3905" width="285.303" height="272.19" rx="136" transform="matrix(1, 0.017, -0.017, 1, 4128.408, 1685.502)" fill="#fff"/>
      <g id="Mask_Group_5772" data-name="Mask Group 5772" clip-path="url(#clip-path-5)">
        <g id="__TEMP__SVG__4" data-name="__TEMP__SVG__" transform="translate(4193.39 1748.822)">
          <path id="Path_68649" data-name="Path 68649" d="M103.961,103.148a10.406,10.406,0,0,0,9.375-10.962,10.8,10.8,0,0,0-10.681-10.3h-.381a10.687,10.687,0,0,0-10.3,11.056,11.41,11.41,0,0,0,3.087,7.206c-6.55,12.737-16.381,22.1-31.281,29.968a51.326,51.326,0,0,1-30.9,5.812c-8.612-1.219-15.35-5.062-19.475-11.244-6.175-9.369-6.737-19.475-1.594-29.587A44.035,44.035,0,0,1,24.931,79.83a62.25,62.25,0,0,1-2.625-9.644C-5.425,90.049-2.6,117.2,5.825,130.029c6.275,9.362,19.106,15.35,33.149,15.35a48.57,48.57,0,0,0,11.519-1.212c24.356-4.681,42.8-19.287,53.38-40.824Zm33.424-23.412c-14.5-17.05-35.862-26.412-60.212-26.412H73.986a10.08,10.08,0,0,0-9.362-5.619h-.281A10.48,10.48,0,0,0,54.049,58.662a10.79,10.79,0,0,0,10.675,10.3h.462a10.562,10.562,0,0,0,9.369-6.556h3.469a72.52,72.52,0,0,1,40.549,12.45c9.544,6.281,16.387,14.519,20.231,24.356,3.362,8.05,3.181,15.918-.281,22.481-5.344,10.294-14.337,15.731-26.225,15.731A48.882,48.882,0,0,1,93.755,133.4c-2.25,1.862-6,4.956-8.712,6.831,8.237,3.737,16.575,5.894,24.625,5.894,18.262,0,31.837-10.294,36.993-20.225,5.612-11.237,5.15-30.15-9.187-46.349ZM40.562,106.511a10.781,10.781,0,0,0,10.675,10.3h.375a10.675,10.675,0,0,0-.281-21.343h-.375a4.061,4.061,0,0,0-1.412.181,69.962,69.962,0,0,1-9.825-42.324c.75-11.425,4.5-21.356,11.231-29.593,5.625-7.025,16.206-10.5,23.418-10.675,20.225-.381,28.656,24.818,29.306,34.837l9.362,2.812C110.879,19.981,91.786,3.875,73.524,3.875c-17.15,0-32.962,12.456-39.337,30.718-8.706,24.343-2.994,47.762,7.687,66.493A8.248,8.248,0,0,0,40.562,106.511Z" fill="#fff"/>
        </g>
      </g>
    </g>
    <g id="Group_61715" data-name="Group 61715" transform="translate(-3020.393 238.179)">
      <rect id="Rectangle_3906-5" data-name="Rectangle 3906" width="246.244" height="246.247" rx="123" transform="matrix(1, 0.017, -0.017, 1, 4043.414, 1659.013)" fill="url(#linear-gradient-30)"/>
      <rect id="Rectangle_3905-5" data-name="Rectangle 3905" width="285.303" height="272.19" rx="136" transform="matrix(1, 0.017, -0.017, 1, 4128.408, 1685.502)" fill="#fff"/>
      <g id="Mask_Group_5770" data-name="Mask Group 5770" clip-path="url(#clip-path-3)">
        <g id="__TEMP__SVG__5" data-name="__TEMP__SVG__" transform="translate(4193.393 1748.821)">
          <path id="Path_68647" data-name="Path 68647" d="M80.806,26.838l23.75,13.706a1.338,1.338,0,0,1,0,2.294l-28.219,16.3a2.625,2.625,0,0,1-2.656,0l-28.219-16.3a1.33,1.33,0,0,1,0-2.294L69.194,26.837V0L8.6,34.987v69.969L31.831,91.544V64.137a1.336,1.336,0,0,1,1.987-1.15L62.037,79.281a2.656,2.656,0,0,1,1.337,2.3v32.581a1.339,1.339,0,0,1-1.987,1.15l-23.75-13.706L14.406,115.012,75,150l60.594-34.987-23.231-13.406-23.75,13.7a1.334,1.334,0,0,1-1.988-1.144V81.581a2.654,2.654,0,0,1,1.338-2.3l28.219-16.294a1.332,1.332,0,0,1,1.988,1.15V91.544L141.4,104.956V34.987L80.813,0Z" fill="#fff"/>
        </g>
      </g>
    </g>
    <g id="Group_61716" data-name="Group 61716" transform="translate(-2648.668 1130.179)">
      <rect id="Rectangle_3906-6" data-name="Rectangle 3906" width="246.244" height="246.247" rx="123" transform="matrix(1, 0.017, -0.017, 1, 4043.414, 1659.013)" fill="url(#linear-gradient-31)"/>
      <rect id="Rectangle_3905-6" data-name="Rectangle 3905" width="285.303" height="272.19" rx="136" transform="matrix(1, 0.017, -0.017, 1, 4128.408, 1685.502)" fill="#fff"/>
      <g id="Mask_Group_5766" data-name="Mask Group 5766" clip-path="url(#clip-path-7)" style="mix-blend-mode: color-dodge;isolation: isolate">
        <g id="__TEMP__SVG__6" data-name="__TEMP__SVG__" transform="translate(4182.953 1738.107)">
          <g id="Group_61723" data-name="Group 61723">
            <path id="Path_68641" data-name="Path 68641" d="M118.753,122.845l-33.016,9.417L52.771,122.8,50.512,96.763H66.669l1.149,13.247,17.942,5.077.044.091h.011l17.9-4.973L105.6,88.728H67.969L66.629,71.987h40.395L108.5,54.911H46.875L45.536,38.5h80.551l-7.334,84.341Z" fill="#fff"/>
            <path id="Path_68642" data-name="Path 68642" d="M21.429,10.714l11.7,135.034,52.511,14.966,52.649-14.968L150,10.714ZM128.25,137.448,85.64,149.564l-42.478-12.11L33.113,21.429h105.2L128.25,137.448Z" fill="#fff"/>
          </g>
        </g>
      </g>
    </g>
    <g id="Group_61717" data-name="Group 61717" transform="translate(-2038.393 505.179)">
      <rect id="Rectangle_3906-7" data-name="Rectangle 3906" width="246.244" height="246.247" rx="123" transform="matrix(1, 0.017, -0.017, 1, 4043.414, 1659.013)" fill="url(#linear-gradient-32)"/>
      <rect id="Rectangle_3905-7" data-name="Rectangle 3905" width="285.303" height="272.19" rx="136" transform="matrix(1, 0.017, -0.017, 1, 4128.408, 1685.502)" fill="#fff"/>
      <g id="Mask_Group_5768" data-name="Mask Group 5768" clip-path="url(#clip-path-3)">
        <g id="__TEMP__SVG__7" data-name="__TEMP__SVG__" transform="translate(4193.387 1748.821)">
          <path id="Path_68645" data-name="Path 68645" d="M75.006,30q-30,0-37.5,30,11.25-15,26.25-11.25c5.706,1.425,9.781,5.563,14.3,10.15C85.413,66.363,93.919,75,112.506,75q30,0,37.5-30-11.25,15-26.25,11.25c-5.706-1.425-9.781-5.563-14.3-10.15C102.106,38.638,93.6,30,75.006,30Zm-37.5,45q-30,0-37.5,30,11.25-15,26.25-11.25c5.706,1.425,9.781,5.563,14.3,10.15,7.356,7.463,15.863,16.1,34.45,16.1q30,0,37.5-30-11.25,15-26.25,11.25c-5.706-1.425-9.781-5.563-14.3-10.15C64.606,83.637,56.1,75,37.506,75Z" fill="#fff"/>
        </g>
      </g>
    </g>
    <g id="Group_61718" data-name="Group 61718" transform="translate(-1081.393 1116.179)">
      <rect id="Rectangle_3906-8" data-name="Rectangle 3906" width="246.244" height="246.247" rx="123" transform="matrix(1, 0.017, -0.017, 1, 4043.414, 1659.013)" fill="url(#linear-gradient-33)"/>
      <rect id="Rectangle_3905-8" data-name="Rectangle 3905" width="285.303" height="272.19" rx="136" transform="matrix(1, 0.017, -0.017, 1, 4128.408, 1685.502)" fill="#fff"/>
      <g id="Mask_Group_5774" data-name="Mask Group 5774" clip-path="url(#clip-path-3)">
        <g id="__TEMP__SVG__8" data-name="__TEMP__SVG__" transform="translate(4193.394 1748.824)">
          <path id="Path_68651" data-name="Path 68651" d="M24.312,97.949,39.093,2.881A3.387,3.387,0,0,1,45.437,1.8L61.331,31.618Zm104.962,23.075-14.062-87.5a3.375,3.375,0,0,0-5.744-1.844L20.725,121.03l49.1,27.668a10.131,10.131,0,0,0,9.925,0Zm-39.9-76.356L78,22.906a3.387,3.387,0,0,0-6,0L22.062,112.4Z" fill="#fff"/>
        </g>
      </g>
    </g>
    <g id="Group_61719" data-name="Group 61719" transform="translate(-2114.668 2262.179)">
      <rect id="Rectangle_3906-9" data-name="Rectangle 3906" width="246.244" height="246.247" rx="123" transform="matrix(1, 0.017, -0.017, 1, 4043.414, 1659.013)" fill="url(#linear-gradient-34)"/>
      <rect id="Rectangle_3905-9" data-name="Rectangle 3905" width="285.303" height="272.19" rx="136" transform="matrix(1, 0.017, -0.017, 1, 4128.408, 1685.502)" fill="#fff"/>
      <g id="language-javascript" transform="translate(4186.993 1753.193)" style="mix-blend-mode: color-dodge;isolation: isolate">
        <path id="Path_68640" data-name="Path 68640" d="M12.625,101.984Q20.812,120,42.1,120q13.645,0,21.559-7.368t7.914-22.105V22.842H51.923V89.976q0,12.554-10.37,12.554-7.1,0-13.1-10.37ZM81.943,99.8Q92.313,120,117.966,120q14.737,0,23.743-7.368t9.006-19.922q0-12.008-6.277-18.558T124.516,61.594L119.6,59.411q-6.55-2.729-9.279-5.185A8.709,8.709,0,0,1,107.6,47.4a7.855,7.855,0,0,1,2.456-5.731,9.221,9.221,0,0,1,6.823-2.456q8.187,0,13.1,8.187l14.737-9.825Q135.978,21.75,116.875,21.75q-13.1,0-21.014,7.368t-7.914,18.83q0,11.462,6,18.012t18.012,11.462l4.912,2.183q5.458,2.729,7.914,3.821a11.438,11.438,0,0,1,4.366,3.548,9.067,9.067,0,0,1,1.91,5.731,8.545,8.545,0,0,1-3.548,7.1q-3.548,2.729-9.552,2.729-12.554,0-19.649-12.008Z" fill="#fff"/>
      </g>
    </g>
    <g id="Group_61720" data-name="Group 61720" transform="translate(-995.391 1876.179)">
      <rect id="Rectangle_3906-10" data-name="Rectangle 3906" width="246.244" height="246.247" rx="123" transform="matrix(1, 0.017, -0.017, 1, 4043.414, 1659.013)" fill="url(#linear-gradient-35)"/>
      <rect id="Rectangle_3905-10" data-name="Rectangle 3905" width="285.303" height="272.19" rx="136" transform="matrix(1, 0.017, -0.017, 1, 4128.408, 1685.502)" fill="#fff"/>
      <g id="Mask_Group_5773" data-name="Mask Group 5773" clip-path="url(#clip-path-5)">
        <g id="__TEMP__SVG__9" data-name="__TEMP__SVG__" transform="translate(4193.39 1748.821)">
          <path id="Path_68650" data-name="Path 68650" d="M115.55,60.938a66.368,66.368,0,0,1,10.169.694,39.876,39.876,0,0,1,8.163,2.125V79.119a24.686,24.686,0,0,0-4.019-2.256,31.832,31.832,0,0,0-4.481-1.625,34.082,34.082,0,0,0-8.913-1.25,22.344,22.344,0,0,0-5.119.537,13.125,13.125,0,0,0-3.894,1.513A7.494,7.494,0,0,0,105,78.375a5.55,5.55,0,0,0-.875,3.063,5.883,5.883,0,0,0,.975,3.306,11.29,11.29,0,0,0,2.769,2.775,29,29,0,0,0,4.35,2.563q2.559,1.266,5.787,2.6a64.819,64.819,0,0,1,7.913,3.925,28.158,28.158,0,0,1,6.019,4.706,18.221,18.221,0,0,1,3.838,5.981,23.906,23.906,0,0,1-.994,18.181,18.956,18.956,0,0,1-6.325,6.781,27.375,27.375,0,0,1-9.294,3.725,53.851,53.851,0,0,1-11.188,1.125,61.977,61.977,0,0,1-11.5-1.025A34.65,34.65,0,0,1,87.025,133V116.563a31.456,31.456,0,0,0,20.231,7.5,23.379,23.379,0,0,0,5.45-.562,12.851,12.851,0,0,0,3.894-1.562,6.968,6.968,0,0,0,2.331-2.375,6.394,6.394,0,0,0-.462-6.806,13.25,13.25,0,0,0-3.356-3.125,34.98,34.98,0,0,0-5.044-2.775q-3.12-1.425-6.294-2.725-8.606-3.591-12.831-8.781a19.232,19.232,0,0,1-4.225-12.531,19.99,19.99,0,0,1,2.306-9.887A19.594,19.594,0,0,1,95.3,66.125a28.088,28.088,0,0,1,9.188-3.931,47.1,47.1,0,0,1,11.062-1.256ZM21.094,62.112H80.863V75.65H59.412v60.287H42.431V75.65H21.094Z" fill="#fff"/>
        </g>
      </g>
    </g>
    <g id="Group_61721" data-name="Group 61721" transform="translate(-26.035 1876.179)">
      <rect id="Rectangle_3906-11" data-name="Rectangle 3906" width="246.244" height="246.247" rx="123" transform="matrix(1, 0.017, -0.017, 1, 4043.414, 1659.013)" fill="url(#linear-gradient-36)"/>
      <rect id="Rectangle_3905-11" data-name="Rectangle 3905" width="285.303" height="272.19" rx="136" transform="matrix(1, 0.017, -0.017, 1, 4128.408, 1685.502)" fill="#fff"/>
      <g id="Mask_Group_5776" data-name="Mask Group 5776" clip-path="url(#clip-path-3)">
        <g id="next-js" transform="translate(4193.33 1748.773)">
          <path id="Path_68653" data-name="Path 68653" d="M70.151.088C69.828.117,68.8.22,67.879.293a75.168,75.168,0,0,0-53.892,31.08A74.238,74.238,0,0,0,.748,64.14,57.4,57.4,0,0,0,.073,75.062,57.4,57.4,0,0,0,.748,85.984a75.3,75.3,0,0,0,51.3,60.592,79.284,79.284,0,0,0,15.833,3.284,138.138,138.138,0,0,0,14.367,0,75.714,75.714,0,0,0,27.019-7.9c1.29-.66,1.539-.836,1.363-.982-.117-.088-5.615-7.462-12.212-16.376L86.424,108.4,71.4,86.16c-8.269-12.227-15.071-22.225-15.13-22.225s-.117,9.867-.147,21.932c-.044,21.126-.059,21.976-.323,22.475a2.664,2.664,0,0,1-1.29,1.334c-.469.235-.88.279-3.093.279H48.878l-.674-.425a2.741,2.741,0,0,1-.982-1.07l-.308-.66L46.943,78.4,46.987,49l.454-.572a4.022,4.022,0,0,1,1.085-.894c.6-.293.836-.323,3.372-.323,2.991,0,3.489.117,4.266.968.22.235,8.357,12.491,18.091,27.254S97.3,110.35,103.841,120.246l11.875,17.989.6-.4a76.981,76.981,0,0,0,15.408-13.517,74.657,74.657,0,0,0,17.651-38.337,57.405,57.405,0,0,0,.674-10.922,57.405,57.405,0,0,0-.674-10.922,75.3,75.3,0,0,0-51.3-60.592A78.73,78.73,0,0,0,82.466.279C81.058.132,71.368-.029,70.151.088Zm30.7,45.36a2.958,2.958,0,0,1,1.481,1.73c.117.381.147,8.532.117,26.9l-.044,26.36-4.647-7.125L93.095,86.19V67.028c0-12.388.059-19.352.147-19.689a2.991,2.991,0,0,1,1.451-1.847c.6-.308.821-.337,3.123-.337,2.17,0,2.551.029,3.035.293Z" fill="#fff"/>
          <path id="Path_68654" data-name="Path 68654" d="M114.983,138.557c-.513.323-.674.542-.22.293.323-.191.85-.586.762-.6A3.018,3.018,0,0,0,114.983,138.557Zm-1.012.66c-.264.205-.264.22.059.059a.9.9,0,0,0,.323-.22c0-.117-.073-.088-.381.161Zm-.733.44c-.264.205-.264.22.059.059a.9.9,0,0,0,.323-.22c0-.117-.073-.088-.381.161Zm-.733.44c-.264.205-.264.22.059.059a.9.9,0,0,0,.323-.22c0-.117-.073-.088-.381.161Zm-1.114.586c-.557.293-.528.411.029.132a1.527,1.527,0,0,0,.44-.293C111.86,140.419,111.846,140.434,111.391,140.683Z" fill="#fff"/>
        </g>
      </g>
    </g>
    <g id="Group_61722" data-name="Group 61722" transform="translate(-149.393 978.37)">
      <rect id="Rectangle_3906-12" data-name="Rectangle 3906" width="246.244" height="246.247" rx="123" transform="matrix(1, 0.017, -0.017, 1, 4043.414, 1659.013)" fill="url(#linear-gradient-37)"/>
      <rect id="Rectangle_3905-12" data-name="Rectangle 3905" width="285.303" height="272.19" rx="136" transform="matrix(1, 0.017, -0.017, 1, 4128.408, 1685.502)" fill="#fff"/>
      <g id="Mask_Group_5767" data-name="Mask Group 5767" clip-path="url(#clip-path-3)">
        <g id="__TEMP__SVG__10" data-name="__TEMP__SVG__" transform="translate(4188.393 1743.825)">
          <path id="Path_68643" data-name="Path 68643" d="M128.326,56.473q-2.4-.819-4.828-1.525.4-1.641.744-3.3c3.656-17.781,1.266-32.1-6.893-36.82-7.812-4.525-20.624.191-33.549,11.465q-1.906,1.669-3.734,3.437-1.219-1.175-2.5-2.3C64.019,15.374,50.442,10.3,42.292,15.027c-7.812,4.534-10.134,18-6.843,34.852q.494,2.5,1.109,4.978-2.8.794-5.553,1.75C15.143,62.154,5,70.85,5,79.869,5,89.187,15.887,98.53,32.427,104.2q2.012.684,4.062,1.272-.666,2.653-1.178,5.365c-3.125,16.562-.687,29.708,7.109,34.214,8.053,4.653,21.562-.128,34.73-11.659q1.562-1.369,3.125-2.891,1.975,1.909,4.062,3.706c12.749,10.993,25.34,15.434,33.124,10.915,8.047-4.669,10.662-18.793,7.265-35.977q-.391-1.969-.9-4.019,1.425-.422,2.791-.872C143.8,98.543,155,89.312,155,79.878c-.006-9.062-10.475-17.815-26.674-23.405ZM88.015,31.136c11.071-9.659,21.421-13.471,26.14-10.746,5.022,2.9,6.975,14.609,3.819,29.961q-.312,1.5-.675,2.991a152.441,152.441,0,0,0-20.055-3.175A150.391,150.391,0,0,0,84.565,34.308q1.681-1.631,3.444-3.172ZM49.289,87.574q2.034,3.937,4.253,7.778,2.259,3.919,4.709,7.722a136.018,136.018,0,0,1-13.824-2.228C45.751,96.558,47.382,92.106,49.289,87.574Zm0-15.1c-1.875-4.434-3.462-8.8-4.765-13.009,4.281-.959,8.843-1.744,13.6-2.337q-2.391,3.731-4.6,7.572t-4.244,7.775Zm3.406,7.553q2.962-6.178,6.381-12.118t7.272-11.6c4.462-.337,9.037-.516,13.659-.516s9.225.178,13.684.519q3.815,5.653,7.228,11.562t6.465,12.062q-3.012,6.2-6.45,12.168-3.409,5.937-7.187,11.637c-4.453.312-9.062.484-13.749.484s-9.209-.147-13.581-.431q-3.884-5.684-7.331-11.653t-6.4-12.112ZM106.48,95.309q2.266-3.931,4.35-7.965a137.622,137.622,0,0,1,5.037,13.224,135.762,135.762,0,0,1-14,2.391Q104.252,99.18,106.48,95.309Zm4.287-22.833q-2.075-3.953-4.315-7.812-2.187-3.806-4.559-7.518c4.784.606,9.375,1.412,13.678,2.4a137.461,137.461,0,0,1-4.8,12.934ZM80.069,38.9A137.417,137.417,0,0,1,88.9,49.579q-8.859-.422-17.731,0C74.081,45.723,77.066,42.145,80.069,38.9ZM45.517,20.58c5.019-2.912,16.115,1.25,27.811,11.646.747.666,1.5,1.362,2.25,2.084A153.545,153.545,0,0,0,62.81,50.157a155.969,155.969,0,0,0-20.018,3.125q-.572-2.3-1.031-4.631C38.933,34.2,40.8,23.315,45.517,20.58ZM38.2,99.28q-1.875-.534-3.7-1.159c-7.312-2.5-13.353-5.762-17.5-9.315-3.712-3.184-5.594-6.362-5.594-8.937,0-5.472,8.143-12.453,21.724-17.187q2.559-.891,5.162-1.628A154.223,154.223,0,0,0,45.6,80.037,157.007,157.007,0,0,0,38.2,99.28Zm34.727,29.271c-5.822,5.1-11.653,8.715-16.793,10.537-4.619,1.634-8.3,1.681-10.518.4-4.731-2.734-6.7-13.293-4.015-27.455q.478-2.5,1.094-5a150.259,150.259,0,0,0,20.215,2.934A156.613,156.613,0,0,0,75.784,125.9q-1.4,1.373-2.856,2.65Zm7.318-7.256c-3.037-3.284-6.068-6.918-9.025-10.825q4.309.169,8.775.169,4.584,0,9.062-.2a137.279,137.279,0,0,1-8.812,10.856Zm38.911,8.934c-.894,4.825-2.69,8.043-4.912,9.331-4.728,2.744-14.837-.822-25.736-10.225-1.25-1.075-2.5-2.228-3.772-3.437a151.416,151.416,0,0,0,12.571-16,149.32,149.32,0,0,0,20.312-3.141q.459,1.856.812,3.637C119.936,117.989,120.151,124.857,119.158,130.229Zm5.437-32.074c-.819.272-1.662.534-2.519.791a151.017,151.017,0,0,0-7.6-19.043,150.469,150.469,0,0,0,7.3-18.768c1.534.447,3.025.916,4.459,1.412,13.881,4.787,22.349,11.875,22.349,17.321C148.588,85.681,139.441,93.224,124.595,98.155Z" fill="#fff"/>
          <path id="Path_68644" data-name="Path 68644" d="M80,93.293A13.437,13.437,0,1,0,66.6,79.856,13.437,13.437,0,0,0,80,93.293Z" fill="#fff"/>
        </g>
      </g>
    </g>
    <g id="html" transform="translate(2569 2467.809)">
      <path id="Path_68655" data-name="Path 68655" d="M361.522,199.448l-71.154,93.435a21.945,21.945,0,0,1-15.632,6.109A21.608,21.608,0,0,1,259.1,292.7a20.711,20.711,0,0,1-6.469-15.453,21.3,21.3,0,0,1,6.469-15.632L318.4,184l-59.3-77.623a21.981,21.981,0,0,1,31.265-30.905l71.154,93.076a21.692,21.692,0,0,1,0,30.905ZM184,345.35q-.359,1.078-1.078,4.133t-1.078,4.133l-1.258,3.773-1.8,3.773-2.7,2.875-3.773,2.516-4.851,1.258L161,368.35q-8.625,0-16.531-8.984t-5.75-17.25L184,23q6.109-23,34.5-23,7.906,0,10.6,8.445a30.951,30.951,0,0,1,.18,17.789ZM108.888,292.7a21.608,21.608,0,0,1-15.632,6.289,21.945,21.945,0,0,1-15.632-6.109L6.469,199.448a21.692,21.692,0,0,1,0-30.905L77.623,75.467a22.123,22.123,0,0,1,31.265,0,21.692,21.692,0,0,1,0,30.905L49.592,184l59.3,77.623a21.3,21.3,0,0,1,6.469,15.632A20.711,20.711,0,0,1,108.888,292.7Z" fill="url(#linear-gradient-38)"/>
    </g>
  </g>
</svg>
